<svg xmlns="http://www.w3.org/2000/svg" xmlns:xlink="http://www.w3.org/1999/xlink"><defs><style>
    .sprite-symbol-usage {display: none;}
    .sprite-symbol-usage:target {display: inline;}
  </style><symbol viewBox="0 0 17.21 8" id="arr"><path d="M0 4a.5.5 0 0 1 .5-.5h16a.5.5 0 0 1 0 1H.5A.5.5 0 0 1 0 4Z" fill="currentColor" fill-rule="evenodd" /><path d="M12.65.15a.48.48 0 0 1 .7 0L17.21 4l-3.86 3.85a.49.49 0 0 1-.7-.7L15.79 4 12.65.85a.48.48 0 0 1 0-.7Z" fill="currentColor" fill-rule="evenodd" /></symbol><symbol viewBox="0 0 10 19" fill="none" id="facebook"><g clip-path="url(#facebook_a)"><path fill-rule="evenodd" clip-rule="evenodd" d="M6.137 18.993H2.046V9.499H.001V6.226h2.045V4.262c0-2.669 1.155-4.258 4.433-4.258h2.73v3.273H7.504c-1.278 0-1.362.458-1.362 1.312l-.005 1.637h3.092l-.362 3.273h-2.73v9.494Z" fill="#fff" /></g><defs></defs></symbol><clipPath id="facebook_a"><rect width="100%" height="100%" fill="#fff" /></clipPath><symbol viewBox="0 0 20 20" fill="none" id="linkedin"><g clip-path="url(#linkedin_a)"><path fill-rule="evenodd" clip-rule="evenodd" d="M18.512 19.013H1.488c-.816 0-1.477-.579-1.477-1.293V2.282C.011 1.569.672.99 1.488.99h17.024c.815 0 1.476.579 1.476 1.292V17.72c0 .714-.661 1.293-1.476 1.293ZM3.473 16.044h2.942V7.907H3.473v8.137ZM4.964 3.985c-1.007 0-1.664.607-1.664 1.406 0 .78.638 1.406 1.625 1.406h.019c1.026 0 1.664-.626 1.664-1.406-.018-.799-.638-1.406-1.644-1.406Zm12.059 7.394c0-2.5-1.452-3.663-3.387-3.663-1.562 0-2.26.789-2.651 1.344V7.907H8.043c.039.764 0 8.137 0 8.137h2.942V11.5c0-.242.019-.486.097-.659.212-.486.697-.989 1.509-.989 1.065 0 1.49.746 1.49 1.84v4.352h2.942v-4.665Zm-6.058-2.292.02-.027v.027h-.02Z" fill="#fff" /></g><defs></defs></symbol><clipPath id="linkedin_a"><rect width="100%" height="100%" fill="#fff" /></clipPath><symbol viewBox="0 0 16 11" fill="none" id="mail"><path d="m8.14 6.162-.005.003a.204.204 0 0 1-.111.032H8.02a.193.193 0 0 1-.117-.033h-.001L1.1.4h13.836L8.45 5.903l-.286.242-.025.017Zm1.895.327L15.01 10.6H.984L5.97 6.459l.993.842h.001c.293.247.67.377 1.057.377.388 0 .765-.131 1.058-.378v-.001l.955-.81ZM4.83 5.492.4 9.17V1.738l4.43 3.754ZM15.6 1.769v7.407L11.177 5.52 15.6 1.77Z" stroke="#fff" stroke-width=".8" /></symbol><symbol viewBox="0 0 11 16" fill="none" id="marker"><path d="m1.508 9.25.005.007L5.5 15.112l3.987-5.855.005-.008.005-.007c.74-1.002 1.075-2.363.99-3.72C10.402 4.167 9.9 2.87 9.033 1.99a4.936 4.936 0 0 0-7.066 0l-.459 7.26Zm0 0-.005-.008m.005.007-.005-.007m0 0C.763 8.24.428 6.879.513 5.522m.99 3.72-.99-3.72m0 0C.598 4.167 1.1 2.87 1.967 1.99L.513 5.523Zm2.725.016c0 1.288 1.029 2.347 2.316 2.347 1.286 0 2.315-1.059 2.315-2.347S6.84 3.192 5.554 3.192c-1.287 0-2.316 1.058-2.316 2.346Z" stroke="#fff" /></symbol><symbol viewBox="0 0 17 16" fill="none" id="phone"><path d="m16.003 12.627.991-.13-.004-.033-.007-.033-.98.196Zm-.238.678.705.71.003-.003-.707-.707Zm-2.254 2.237-.704-.71-.02.02-.019.021.743.67Zm-.398.288-.434-.9.434.9Zm-.483.153v1h.071l.07-.01-.141-.99Zm-.102.008.1.996-.1-.995Zm-3.025-.644.383-.923-.383.923Zm-2.365-1.296.548-.837-.548.837Zm-2.813-2.373.711-.703-.01-.01-.701.713ZM2.359 9.44l-.808.59.808-.59ZM1.105 7.466l.886-.464-.886.464ZM.02 3.373l-.99-.142-.01.07v.072h1Zm.44-.881.67.743.019-.018.019-.018-.708-.707ZM2.715.237l.707.707-.707-.707Zm1.22.204.885-.467-.02-.036-.021-.034-.844.537Zm1.814 3.44-.885.467.006.012.007.012.872-.49Zm-.204 1.136-.707-.707.707.707Zm-.83.83.707.708-.707-.708Zm-.085.238h-1v.094l.018.093.982-.187Zm.305.813.894-.447-.003-.006-.003-.007-.888.46Zm1.83 2.34.715-.7-.007-.008-.008-.008-.7.715Zm1.356 1.211-.588.808.588-.808Zm1.602.881.196-.98-.196.98Zm.212.043-.196.98.097.02h.099v-1Zm.11-.026.316.95v-.001l-.316-.949Zm.11-.059.708.707.006-.006-.714-.701Zm.966-.983-.664-.748-.025.023-.024.024.713.701Zm1.17-.17-.515.858.238.143h.277v-1Zm.017 0 .508-.86-.235-.14h-.273v1Zm3.271 1.933.526-.85-.008-.006-.01-.005-.508.86Zm-.568.689a.227.227 0 0 1 .014-.096c.016-.047.038-.067.033-.063l1.415 1.414c.402-.402.597-.933.521-1.514l-1.983.259Zm.05-.162-2.254 2.237 1.409 1.42 2.254-2.237-1.409-1.42Zm-2.293 2.278s-.005.006-.019.016a.46.46 0 0 1-.07.04l.868 1.802c.26-.125.504-.294.708-.52l-1.487-1.338Zm-.09.057a.654.654 0 0 1-.19.063l.283 1.98c.273-.04.533-.124.777-.242l-.87-1.801Zm-.048.053c-.075 0-.173.01-.201.013l.199 1.99c.012 0 .023-.002.032-.003l.02-.002a.027.027 0 0 0 .001 0l-.014.001h-.037v-2Zm-.2.013c-.011.002-.049.004-.122.004v2c.107 0 .217-.003.32-.013l-.199-1.99Zm-.122.004c-.132 0-.415-.026-.891-.099l-.303 1.977c.484.074.897.122 1.194.122v-2Zm-.891-.099c-.37-.056-.875-.205-1.531-.477L9.12 16.27c.733.304 1.404.517 1.994.607l.303-1.977Zm-1.531-.477c-.62-.257-1.352-.655-2.2-1.21L6.59 14.888c.915.598 1.759 1.064 2.529 1.383l.766-1.847Zm-2.2-1.21c-.806-.527-1.69-1.268-2.65-2.24l-1.422 1.407c1.028 1.04 2.02 1.881 2.977 2.507l1.095-1.674Zm-2.66-2.248c-.761-.751-1.379-1.456-1.86-2.115l-1.615 1.18c.559.764 1.252 1.55 2.072 2.36l1.404-1.425ZM3.167 8.85a14.954 14.954 0 0 1-1.175-1.849L.219 7.93c.344.659.791 1.36 1.332 2.1l1.615-1.179ZM1.991 7.002a9.653 9.653 0 0 1-.646-1.486l-1.904.612c.18.56.443 1.162.778 1.802l1.772-.928Zm-.646-1.486a7.753 7.753 0 0 1-.287-1.122l-1.975.314c.067.423.19.899.358 1.42l1.904-.612Zm-.287-1.122a3.322 3.322 0 0 1-.057-.627l-1.997-.11c-.017.308.018.67.079 1.05l1.975-.313Zm-.057-.627c.01-.18.019-.335.019-.394h-2v-.008l-.003.06-.013.231 1.997.111Zm.009-.253a.656.656 0 0 1 .063-.19l-1.801-.869a2.646 2.646 0 0 0-.242.776l1.98.283Zm.063-.19a.472.472 0 0 1 .04-.07l.016-.02-1.338-1.486a2.267 2.267 0 0 0-.52.707l1.802.87Zm.095-.125L3.422.944 2.008-.47-.247 1.784 1.168 3.2ZM3.422.944c.002-.002-.014.015-.052.031A.29.29 0 0 1 3.257 1v-2c-.496 0-.924.205-1.25.53L3.423.944ZM3.257 1a.375.375 0 0 1-.21-.073l1.2-1.6A1.632 1.632 0 0 0 3.257-1v2Zm-.21-.073a.18.18 0 0 1 .044.05L4.78-.095a2.178 2.178 0 0 0-.532-.577l-1.2 1.6Zm.003-.02 1.814 3.44 1.77-.932L4.82-.025 3.05.906Zm1.827 3.465a.194.194 0 0 1-.02-.065c-.005-.028-.001-.043-.002-.038l1.957.412a1.824 1.824 0 0 0-.192-1.29l-1.743.98Zm-.022-.103a.13.13 0 0 1-.01.033.03.03 0 0 1-.007.008l1.414 1.414c.292-.292.477-.65.56-1.043l-1.957-.412Zm-.017.04-.83.831 1.414 1.415.83-.831L4.838 4.31Zm-.83.831c-.183.183-.264.39-.301.501l1.897.633a.813.813 0 0 1-.182.28L4.008 5.14Zm-.301.501c-.034.101-.077.259-.077.444h2a.71.71 0 0 1-.026.189L3.707 5.64Zm-.06.63c.07.364.215.73.4 1.088l1.776-.921a2.102 2.102 0 0 1-.21-.54l-1.965.374Zm.394 1.075c.17.34.413.72.711 1.13l1.62-1.173a6.526 6.526 0 0 1-.543-.852l-1.788.895Zm.711 1.13c.328.453.772.946 1.314 1.476l1.399-1.43c-.498-.486-.856-.892-1.093-1.219l-1.62 1.174Zm1.299 1.46c.53.543 1.025.989 1.482 1.321L8.71 9.641c-.334-.244-.743-.606-1.23-1.103L6.05 9.936Zm1.482 1.321c.414.302.793.549 1.125.718l.91-1.78a6.903 6.903 0 0 1-.858-.554l-1.177 1.616Zm1.125.718c.28.143.586.28.87.336l.39-1.961c.014.002-.01-.001-.08-.03a3.455 3.455 0 0 1-.27-.126l-.91 1.781Zm.869.336.212.042.392-1.96-.212-.043-.392 1.96Zm.408.062c.201 0 .375-.06.426-.077L9.73 10.4c-.007.002.003-.002.026-.007a.704.704 0 0 1 .18-.02v2Zm.427-.077c.11-.037.318-.118.5-.3L9.449 10.58a.815.815 0 0 1 .28-.182l.634 1.897Zm.507-.307.966-.983-1.427-1.402-.966.983 1.427 1.402Zm.917-.936a.14.14 0 0 1 .018-.015c.002 0 .003-.001.003-.002h.004c.003-.001.01-.002.022-.002v-2c-.517 0-.99.18-1.376.523l1.329 1.496Zm.047-.02c.04 0 .05.004.042.002a.35.35 0 0 1-.099-.042l1.03-1.715c-.324-.194-.677-.244-.973-.244v2Zm.458.103h.017v-2h-.017v2Zm-.492-.14 3.271 1.933 1.018-1.722-3.272-1.933-1.017 1.723Zm3.254 1.922c.033.02.03.026.013.004a.236.236 0 0 1-.044-.099l1.961-.392c-.11-.554-.459-.954-.878-1.213l-1.053 1.7Z" fill="#fff" mask="url(#phone_a)" /></symbol><mask id="phone_a" fill="#fff"><path d="M16.003 12.627a.774.774 0 0 1-.238.678l-2.254 2.237a1.27 1.27 0 0 1-.398.288c-.164.08-.325.13-.483.153l-.102.008c-.056.006-.13.009-.22.009-.215 0-.562-.037-1.043-.11-.48-.074-1.067-.255-1.762-.543-.695-.288-1.483-.72-2.365-1.296-.88-.576-1.819-1.367-2.813-2.373-.791-.78-1.446-1.526-1.966-2.237a15.94 15.94 0 0 1-1.254-1.975 10.635 10.635 0 0 1-.712-1.644A8.722 8.722 0 0 1 .07 4.551a4.198 4.198 0 0 1-.068-.84c.011-.203.017-.316.017-.338.022-.158.073-.32.152-.483a1.27 1.27 0 0 1 .288-.398L2.715.237A.747.747 0 0 1 3.257 0c.147 0 .277.042.39.127.113.085.209.19.288.314l1.814 3.44c.101.181.13.379.084.594a1.057 1.057 0 0 1-.288.542l-.83.83a.283.283 0 0 0-.06.11.418.418 0 0 0-.025.128c.045.237.147.508.305.813.136.271.345.602.627.992.283.39.684.839 1.204 1.347.508.52.96.924 1.355 1.212.396.288.726.5.992.636.266.135.469.217.61.245l.212.043c.023 0 .06-.009.11-.026a.285.285 0 0 0 .11-.059l.966-.983c.204-.18.441-.271.712-.271.192 0 .345.034.458.101h.017l3.271 1.933c.237.147.379.333.424.56Z" /></mask><symbol viewBox="0 0 14 19" fill="none" id="pininterest"><g clip-path="url(#pininterest_a)"><path fill-rule="evenodd" clip-rule="evenodd" d="M7.424 0C2.489 0 .001 3.522.001 6.46c0 1.778.676 3.36 2.127 3.95.238.097.451.003.52-.259.048-.181.162-.639.212-.83.07-.259.043-.35-.149-.576-.419-.491-.686-1.127-.686-2.028 0-2.613 1.964-4.952 5.114-4.952 2.789 0 4.321 1.697 4.321 3.962 0 2.982-1.325 5.498-3.293 5.498-1.086 0-1.899-.895-1.639-1.992.313-1.309.917-2.723.917-3.669 0-.846-.456-1.552-1.401-1.552-1.11 0-2.002 1.144-2.002 2.676 0 .977.331 1.637.331 1.637l-1.336 5.634c-.397 1.672-.059 3.722-.031 3.93.017.122.175.151.247.059.102-.134 1.425-1.759 1.875-3.384.127-.46.73-2.842.73-2.842.361.685 1.416 1.289 2.537 1.289 3.339 0 5.604-3.031 5.604-7.087C13.999 2.857 11.39 0 7.424 0Z" fill="#fff" /></g><defs></defs></symbol><clipPath id="pininterest_a"><rect width="100%" height="100%" fill="#fff" /></clipPath><symbol viewBox="0 0 22 17" fill="none" id="twitter"><g clip-path="url(#twitter_a)"><path fill-rule="evenodd" clip-rule="evenodd" d="M21.008 1.896a9.062 9.062 0 0 1-2.475.635c.89-.5 1.573-1.292 1.895-2.234a9.05 9.05 0 0 1-2.738.98A4.437 4.437 0 0 0 14.545.001c-2.38 0-4.311 1.809-4.311 4.039 0 .317.038.626.112.921-3.582-.169-6.758-1.777-8.884-4.22a3.829 3.829 0 0 0-.583 2.031c0 1.4.761 2.638 1.917 3.362a4.527 4.527 0 0 1-1.952-.506v.052c0 1.957 1.485 3.589 3.457 3.96a4.696 4.696 0 0 1-1.946.07c.548 1.603 2.14 2.772 4.026 2.805a9.023 9.023 0 0 1-5.353 1.728c-.348 0-.691-.019-1.028-.056a12.81 12.81 0 0 0 6.607 1.815c7.928 0 12.263-6.156 12.263-11.493 0-.176-.005-.349-.013-.523a8.503 8.503 0 0 0 2.151-2.09Z" fill="#fff" /></g><defs></defs></symbol><clipPath id="twitter_a"><rect width="100%" height="100%" fill="#fff" /></clipPath></defs><use id="arr-usage" xlink:href="#arr" class="sprite-symbol-usage" /><use id="facebook-usage" xlink:href="#facebook" class="sprite-symbol-usage" /><use id="linkedin-usage" xlink:href="#linkedin" class="sprite-symbol-usage" /><use id="mail-usage" xlink:href="#mail" class="sprite-symbol-usage" /><use id="marker-usage" xlink:href="#marker" class="sprite-symbol-usage" /><use id="phone-usage" xlink:href="#phone" class="sprite-symbol-usage" /><use id="pininterest-usage" xlink:href="#pininterest" class="sprite-symbol-usage" /><use id="twitter-usage" xlink:href="#twitter" class="sprite-symbol-usage" /></svg>